<svg width="255" height="22" viewBox="0 0 255 22" fill="none" xmlns="http://www.w3.org/2000/svg">
<g clip-path="url(#clip0_1_3220)">
<path d="M60.9332 1.19235C60.6203 0.880447 60.2652 0.671373 59.882 0.565122C59.7203 0.520565 59.5515 0.5 59.3898 0.5C59.1648 0.5 58.9398 0.541129 58.7218 0.626816C58.3245 0.781051 58.0187 1.1238 57.8148 1.65162L57.8077 1.67219V1.69275C57.7234 2.10748 57.7234 2.5222 57.8042 2.92664C57.8816 3.30708 58.0257 3.61898 58.2331 3.85548C58.2402 4.40387 58.307 4.93855 58.4335 5.44924C58.5636 5.9805 58.7288 6.49804 58.9257 6.98474L58.9609 7.07043L59.0382 7.1047C59.2245 7.1801 59.3933 7.22123 59.5445 7.22123C59.7027 7.22123 59.8433 7.17668 59.9628 7.09442C60.1773 6.94361 60.339 6.70369 60.4515 6.38151C60.5535 6.09017 60.6273 5.744 60.673 5.3567C60.7152 4.98996 60.7644 4.61637 60.8242 4.23935C60.8804 3.87604 60.9578 3.52644 61.0492 3.20769C61.1335 2.91978 61.2636 2.70385 61.4464 2.55304L61.5449 2.46736L61.5203 2.33026C61.4464 1.8984 61.246 1.51453 60.9261 1.19577" fill="white"/>
<path d="M232.405 3.34482L232.299 3.30369C231.276 2.90268 230.264 2.64562 229.297 2.53594C228.337 2.42626 227.364 2.37142 226.404 2.37142C225.444 2.37142 224.481 2.37485 223.528 2.38513C223.482 2.38513 223.437 2.38513 223.391 2.38513C222.494 2.38513 221.556 2.29944 220.603 2.1315L220.547 2.12122L220.494 2.14864C220.149 2.31658 219.805 2.39884 219.464 2.39884C219.091 2.39884 218.74 2.41255 218.423 2.43997C218.075 2.47082 217.773 2.58392 217.527 2.77929C217.26 2.99179 217.094 3.38937 217.021 4.00289L217.003 4.15027L217.115 4.22567C217.274 4.33192 217.456 4.46217 217.664 4.61297C217.878 4.77064 218.114 4.91802 218.36 5.05854C218.613 5.2025 218.88 5.31217 219.147 5.38758C219.292 5.42871 219.439 5.44927 219.583 5.44927C219.675 5.44927 219.766 5.44242 219.861 5.42528C220.23 6.25815 220.483 7.14586 220.617 8.07127C220.761 9.06523 220.839 10.1106 220.856 11.1731C220.87 12.2459 220.856 13.3461 220.807 14.4429C220.758 15.5534 220.758 16.657 220.807 17.723V17.7333C220.835 18.0726 220.796 18.3194 220.701 18.4736C220.592 18.6415 220.448 18.7684 220.265 18.8609C220.065 18.9603 219.84 19.0391 219.597 19.0871C219.327 19.1419 219.07 19.2242 218.828 19.327C218.567 19.4367 218.342 19.5978 218.17 19.8C217.98 20.0228 217.882 20.3484 217.882 20.7666V20.9825H218.3C219.404 21.0442 220.561 21.1367 221.735 21.2704C222.927 21.4041 224.143 21.4863 225.349 21.5035C225.455 21.5035 225.564 21.5035 225.669 21.5035C226.773 21.5035 227.884 21.4143 228.974 21.243C230.18 21.051 231.361 20.65 232.486 20.0468L232.739 19.9097L231.452 18.4393C231.508 18.4188 231.572 18.4016 231.635 18.3879C231.846 18.3502 232.078 18.2611 232.321 18.124L232.556 17.9937L231.382 16.5097C231.466 16.4068 231.565 16.3314 231.674 16.2834C231.895 16.1909 232.124 16.0093 232.373 15.7316L232.567 15.5123L232.321 15.3717C231.723 15.029 231.259 14.8611 230.9 14.8611C230.521 14.8611 230.222 14.9947 230.014 15.2621C229.821 15.5054 229.691 15.8345 229.617 16.232C229.554 16.5919 229.494 16.9792 229.445 17.3802C229.399 17.771 229.336 18.1548 229.265 18.525C229.202 18.8677 229.09 19.1488 228.931 19.3613C228.787 19.5601 228.58 19.6732 228.292 19.7109C228.253 19.7178 228.207 19.7178 228.165 19.7178C227.873 19.7178 227.487 19.6081 227.019 19.3887L226.928 19.3442L226.84 19.4024C226.717 19.4847 226.597 19.5258 226.488 19.5258C226.411 19.5258 226.333 19.5053 226.26 19.4641C226.021 19.3305 225.778 19.1865 225.546 19.0357C225.279 18.8643 225.005 18.7752 224.73 18.7649C224.723 18.7649 224.716 18.7649 224.706 18.7649C224.47 18.7649 224.242 18.902 224.017 19.1762L223.809 19.1385L223.043 18.3776L222.934 18.1308L222.976 17.9115L223.623 17.6784L223.563 17.2397H223.152C223.152 17.2397 223.12 17.2397 223.103 17.2397L223.138 17.0581C223.138 17.0581 223.127 16.7564 223.12 16.4514C223.166 16.4857 223.212 16.5234 223.261 16.5576C223.342 16.6159 223.43 16.6468 223.524 16.6468C223.637 16.6468 223.753 16.6022 223.869 16.5165L223.943 16.4617L223.957 16.3623C224.017 15.903 223.971 15.6048 223.82 15.4197C223.69 15.2655 223.521 15.1524 223.317 15.0873C223.275 15.0736 223.233 15.0598 223.19 15.0496L223.342 14.3675L223.074 13.161C223.074 13.161 223.099 13.1302 223.11 13.1131C223.247 12.9314 223.324 12.6949 223.345 12.4036C223.7 12.2425 224.006 12.1602 224.256 12.1602C224.284 12.1602 224.315 12.1602 224.344 12.1637C224.625 12.1876 224.846 12.2802 225.026 12.4481C225.212 12.6229 225.363 12.8526 225.479 13.1302C225.606 13.4318 225.732 13.7471 225.848 14.0659C225.971 14.3984 226.105 14.7137 226.242 15.005C226.393 15.3238 226.59 15.5774 226.826 15.759L226.938 15.8482L227.054 15.7625C227.413 15.4883 227.603 15.2141 227.634 14.9296C227.662 14.6828 227.638 14.4258 227.567 14.1721C227.504 13.9494 227.444 13.7163 227.388 13.4798C227.353 13.3256 227.378 13.1439 227.469 12.9622H228.249L227.905 12.5784C227.733 12.3864 227.645 12.1534 227.638 11.8655C227.631 11.5399 227.652 11.1868 227.708 10.8132C227.764 10.4294 227.817 10.0386 227.866 9.63762C227.905 9.31544 227.898 9.00697 227.849 8.70192H228.155L226.33 5.85028L224.913 7.11159L225.096 7.28639C225.367 7.5503 225.43 7.70111 225.44 7.76966C225.462 7.88276 225.444 7.9753 225.388 8.06785C225.31 8.19466 225.201 8.3249 225.061 8.45515C224.896 8.60938 224.751 8.78418 224.628 8.96584C224.495 9.17149 224.417 9.3977 224.396 9.6479C224.389 9.72673 224.396 9.80899 224.407 9.89125L222.821 9.00354V8.88358L223.138 7.89305C223.138 7.89305 223.152 7.89305 223.159 7.89305C223.331 7.88276 223.489 7.83821 223.623 7.75937C223.795 7.66341 223.908 7.45776 223.95 7.14929L223.985 6.89223H223.458L223.637 6.33698C223.869 6.27872 224.076 6.15533 224.259 5.97024C224.41 5.81601 224.509 5.60008 224.551 5.32246C224.59 5.33274 224.628 5.33617 224.671 5.33617C224.78 5.33617 224.889 5.29846 224.994 5.22306C225.173 5.09624 225.36 4.95229 225.549 4.79463C225.701 4.67124 225.848 4.60269 225.992 4.59584H225.996C226.063 4.59584 226.186 4.71237 226.319 5.04483L226.4 5.24705L226.583 5.15794C227.223 4.84261 227.719 4.65753 228.063 4.60612C228.162 4.59241 228.253 4.58213 228.334 4.58213C228.499 4.58213 228.629 4.61297 228.703 4.67467C228.815 4.76035 228.879 4.90773 228.896 5.12024C228.921 5.38758 228.924 5.69605 228.907 6.03194C228.893 6.35069 228.875 6.70715 228.858 7.11501C228.84 7.5126 228.889 7.89305 229.002 8.24265C229.118 8.60596 229.322 8.91785 229.606 9.17834C229.898 9.44225 230.317 9.6102 230.893 9.6856L231.146 9.71988L231.118 9.4354C231.09 9.15778 231.118 8.91785 231.206 8.72249C231.301 8.50656 231.417 8.31462 231.551 8.1501C231.688 7.9753 231.828 7.81764 231.962 7.67712C232.127 7.50232 232.229 7.32066 232.264 7.13901C232.303 6.92308 232.226 6.714 232.036 6.51178C231.937 6.40896 231.79 6.29585 231.589 6.17589L232.841 5.5658L232.394 3.34482H232.405Z" fill="white"/>
<path d="M14.3896 16.4137C14.4529 15.9613 14.3685 15.5397 14.1364 15.1524L14.154 15.1216C14.5443 14.4361 14.7236 13.6923 14.6814 12.9177C14.6392 12.1774 14.5337 11.4268 14.3614 10.6864C14.1892 9.9461 14.0204 9.23662 13.8517 8.57512C13.6935 7.93762 13.6583 7.36866 13.7462 6.88539L13.7603 6.81341L13.7322 6.74486C13.3349 5.78175 12.8427 5.02085 12.2661 4.47589C11.6931 3.93778 11.0532 3.53334 10.3677 3.27285C9.68565 3.01579 8.95439 2.85813 8.1915 2.80329C7.629 2.76216 7.05946 2.7416 6.49344 2.7416C6.30712 2.7416 6.11727 2.7416 5.92743 2.74845L5.58289 2.75531C4.95359 2.76902 4.33133 2.78616 3.7196 2.79987C3.61765 2.79987 3.51218 2.80329 3.41374 2.80329C2.8196 2.80329 2.25007 2.75874 1.72624 2.66619L1.61022 2.64563L1.53639 2.75188C1.45202 2.87184 1.34655 2.94725 1.20592 2.98152C1.01608 3.02608 0.833263 3.07749 0.660996 3.13233C0.450058 3.20088 0.274276 3.33798 0.144197 3.54019C0.00708706 3.7527 -0.031585 4.08173 0.0246653 4.54101L0.0422435 4.67811L2.35905 5.57953C2.63679 6.52551 2.78796 7.44749 2.81257 8.31464C2.83718 9.22977 2.81257 10.1586 2.74226 11.0737C2.67194 11.9957 2.5946 12.9623 2.51374 13.9528C2.43288 14.9502 2.43991 16.0161 2.53835 17.1198C2.53835 17.4419 2.47155 17.7024 2.3485 17.8944C2.21139 18.1034 2.04967 18.2748 1.86335 18.4016C1.65944 18.5422 1.45202 18.669 1.24108 18.7821C1.00201 18.9123 0.805138 19.0666 0.650449 19.2482C0.481699 19.4504 0.390292 19.7075 0.379745 20.016C0.369198 20.3107 0.478183 20.6843 0.7067 21.1573L0.76295 21.2704L7.17196 21.4932L7.22821 21.4521C7.38993 21.3252 7.62197 21.2601 7.91376 21.2601C7.93134 21.2601 7.94892 21.2601 7.9665 21.2601C8.31806 21.2704 8.70127 21.2738 9.10557 21.2738C9.50986 21.2738 9.91065 21.2156 10.2798 21.1025C10.6665 20.9859 10.9794 20.7152 11.215 20.3004C11.6263 20.0639 12.0728 19.7452 12.5333 19.3476C13.022 18.9295 13.4368 18.4702 13.7673 17.9801C14.1083 17.4762 14.3193 16.945 14.3966 16.4069M11.4259 11.8963C11.3767 12.6915 11.2677 13.473 11.0954 14.2201C10.9232 14.9605 10.656 15.6631 10.2974 16.3075C9.97393 16.8867 9.54502 17.3665 9.01416 17.7298C8.88056 17.5722 8.754 17.5002 8.62392 17.5002C8.58174 17.5002 8.53955 17.5105 8.49736 17.5276C8.12822 17.6853 7.83994 17.9732 7.53759 18.2508C7.30204 18.2611 7.07704 18.2508 6.88368 18.2303C6.03993 17.7538 5.69891 16.8387 5.43875 15.6425C5.2911 14.9605 5.2032 14.2236 5.18914 13.4592C5.17156 12.6846 5.17508 11.9032 5.19969 11.1354C5.2243 10.3574 5.23485 9.5965 5.23485 8.86988C5.23485 8.14326 5.17508 7.48519 5.05203 6.86482C5.36141 6.27873 5.71297 5.86401 6.10321 5.63437C6.47235 5.41501 6.85907 5.30533 7.25282 5.30533C7.29149 5.30533 7.33368 5.30533 7.37587 5.30876C7.81884 5.33275 8.26533 5.47671 8.70478 5.73034C9.15127 5.9874 9.56963 6.33014 9.94932 6.74486C10.329 7.16301 10.6595 7.63257 10.9302 8.14669C11.1939 8.6471 11.3837 9.15779 11.4927 9.66505C11.4927 10.3505 11.4681 11.1012 11.4189 11.8929" fill="white"/>
<path d="M28.0654 18.7374C27.6506 18.3673 27.1865 18.0554 26.6873 17.8052C26.6732 17.6029 26.631 17.3836 26.5607 17.1437C26.4834 16.8695 26.4131 16.5987 26.3603 16.3382C26.3076 16.088 26.283 15.8447 26.283 15.6184C26.283 15.4368 26.3428 15.2791 26.4658 15.142L26.631 14.957L26.4447 14.8027C26.0967 14.5148 25.7978 14.1652 25.5623 13.7642C25.3232 13.3563 25.1228 12.9142 24.9681 12.4446C24.8135 11.9716 24.6939 11.4918 24.6166 11.0085C24.5392 10.5321 24.476 10.0625 24.4302 9.61355C24.4795 9.32907 24.4267 9.06173 24.272 8.81153C24.1314 8.58874 24.0084 8.39338 23.8959 8.21515C23.801 8.06434 23.7517 7.92382 23.7517 7.79015C23.7517 7.77644 23.7623 7.64962 24.1033 7.4474L24.3881 7.27946L24.1279 7.06696C23.7447 6.75163 23.4951 6.36433 23.3791 5.88106C23.256 5.37037 23.1892 4.8871 23.1892 4.4381V4.35584L23.147 4.29415C22.9818 4.07136 22.8201 3.85201 22.6513 3.64293C22.472 3.41329 22.2752 3.21793 22.0677 3.06369C21.8533 2.9026 21.6002 2.79635 21.3259 2.74494C21.2416 2.73123 21.1537 2.72095 21.0658 2.72095C20.8584 2.72095 20.6334 2.76208 20.3978 2.84434L20.324 2.87176L20.2853 2.94373C19.7158 4.00281 19.2517 5.21613 18.9107 6.55284C18.5732 7.87241 18.2533 9.25024 17.9544 10.6452C17.6591 12.0333 17.3251 13.4352 16.9665 14.8096C16.622 16.1291 16.1509 17.3562 15.5603 18.4598C15.0294 18.4804 14.6251 18.6586 14.3544 18.9911C14.0943 19.3098 13.8447 19.7143 13.6126 20.1975L13.5177 20.3963L13.697 20.5026C14.2279 20.8179 14.7868 21.0304 15.3529 21.1332C15.7642 21.2086 16.179 21.2463 16.5904 21.2463C16.738 21.2463 16.8892 21.2395 17.0369 21.2326C17.5923 21.1949 18.1548 21.1092 18.7103 20.9721C19.2623 20.835 19.8107 20.6842 20.338 20.5231L20.7107 20.41L18.1267 18.0142C18.3236 17.884 18.4712 17.7092 18.5697 17.4898C18.6892 17.2191 18.8052 16.9483 18.9107 16.6844C19.0021 16.4582 19.1216 16.2765 19.2728 16.1497C19.3326 16.0983 19.4275 16.0709 19.5505 16.0709C19.6736 16.0709 19.8212 16.0914 19.99 16.1428H20.0146H20.0427C20.8513 16.1428 21.565 16.2834 22.1662 16.5404C22.7146 16.7769 23.1787 17.2568 23.5478 17.9525C23.4775 18.0656 23.4318 18.1068 23.4142 18.1205C23.3545 18.1616 23.2947 18.189 23.2455 18.2027C23.1752 18.2199 23.0978 18.237 23.0099 18.2542C22.8728 18.2816 22.7427 18.3775 22.6162 18.5455L22.5459 18.638L22.5775 18.7546C22.6162 18.9019 22.6267 19.0733 22.6056 19.2584C22.581 19.4778 22.5599 19.7074 22.5424 19.9439C22.5248 20.201 22.5423 20.4546 22.5951 20.6911C22.6548 20.9584 22.8095 21.1983 23.0556 21.4108L23.1646 21.5068L23.2842 21.4246C23.5935 21.212 23.917 21.0887 24.2545 21.0647C24.374 21.0578 24.4935 21.051 24.6131 21.051C24.8521 21.051 25.0982 21.0681 25.3408 21.1024C25.7135 21.1538 26.0861 21.2223 26.4517 21.3012C26.74 21.3629 27.0248 21.3971 27.292 21.3971C27.3799 21.3971 27.4713 21.3937 27.5557 21.3868C27.9142 21.356 28.2553 21.2395 28.5717 21.0338C28.8951 20.8247 29.1729 20.4614 29.3979 19.9542L29.4893 19.752L29.31 19.6526C28.9057 19.4263 28.4873 19.1213 28.0654 18.7443M22.4685 12.5954C22.4439 12.7462 22.4263 12.9005 22.4158 13.0547C22.4158 13.1096 22.4158 13.1644 22.4228 13.2192C22.356 13.2124 22.2927 13.209 22.233 13.209C22.1064 13.209 21.9834 13.2261 21.8673 13.2604C21.6142 13.3323 21.3576 13.418 21.108 13.5071C20.8795 13.5894 20.6334 13.6374 20.3802 13.6442C20.3732 13.6442 20.3627 13.6442 20.3556 13.6442C20.1798 13.6442 19.9724 13.5825 19.7404 13.4626L20.5209 12.4412L20.4787 12.3178C20.3732 11.9991 20.3099 11.6049 20.2853 11.1525C20.2607 10.6932 20.2853 10.2099 20.3556 9.71295C20.4259 9.2194 20.5525 8.72927 20.7283 8.25285C20.8408 7.95124 20.9779 7.66333 21.1361 7.39256C21.2978 7.79015 21.442 8.23572 21.5685 8.71556C21.6951 9.20569 21.8181 9.7198 21.9271 10.2442C22.0396 10.7823 22.1802 11.2964 22.3455 11.7728L22.356 11.8003L22.3701 11.8243C22.458 11.9648 22.5037 12.0882 22.5037 12.1944C22.5037 12.3315 22.4931 12.4686 22.472 12.5989" fill="white"/>
<path d="M38.6088 1.83334C38.2221 2.1658 37.8072 2.35088 37.3642 2.38173C37.0478 2.40572 36.7349 2.41601 36.4326 2.41601C36.2814 2.41601 36.1302 2.41601 35.9826 2.40572C35.8912 2.4023 35.7998 2.39887 35.7119 2.39887C35.3568 2.39887 35.0228 2.42972 34.7205 2.48798C34.2881 2.57367 33.9752 2.865 33.7853 3.34827L33.7748 3.37227V3.39626C33.6974 3.8384 33.7256 4.20856 33.8486 4.49304C33.9681 4.77067 34.1369 4.99688 34.3478 5.1614C34.5482 5.31906 34.7662 5.43902 34.9947 5.51785C35.1459 5.56926 35.2935 5.62067 35.4342 5.66866C35.5642 6.45697 35.5502 7.16988 35.392 7.77997C35.2197 8.45175 35.0017 9.09268 34.7521 9.69249C34.4955 10.306 34.2494 10.9264 34.0244 11.5399C33.8416 12.0403 33.7466 12.5921 33.7466 13.1816L32.0275 11.5982C32.2349 11.4679 32.4072 11.2897 32.3826 11.0429C32.3615 10.8373 32.2595 10.635 32.0802 10.4465C31.9396 10.2991 31.799 10.1346 31.6584 9.95983C31.5669 9.84672 31.5564 9.73704 31.6197 9.58281L31.6619 9.48341L31.6197 9.38744C31.4193 8.94188 31.2822 8.4209 31.2048 7.83481C31.1275 7.25557 31.1486 6.7106 31.2611 6.22048C31.3736 5.74064 31.5845 5.36362 31.9044 5.06885C32.1224 4.87006 32.4212 4.77067 32.7939 4.77067C32.9451 4.77067 33.1138 4.7878 33.2896 4.82208L33.5955 4.88034L33.5181 4.54445C33.3423 3.77328 33.0963 3.29343 32.7728 3.08093C32.4705 2.88214 32.1154 2.77589 31.7181 2.77589H30.5228C30.1326 2.77589 29.7142 2.61137 29.2853 2.27891L29.2185 2.2275L29.1376 2.24463C28.8634 2.29947 28.547 2.36117 28.1849 2.43314C27.8122 2.50855 27.4466 2.6148 27.1021 2.7519C26.747 2.89585 26.4341 3.08436 26.174 3.314C25.8927 3.5642 25.7204 3.89324 25.6677 4.29425L25.6466 4.44506L25.7626 4.52389C26.6697 5.13398 27.3939 5.8606 27.9247 6.67976C28.4591 7.50577 28.8915 8.40719 29.215 9.3566C29.5384 10.3129 29.8091 11.3274 30.0165 12.3659C30.224 13.4181 30.4525 14.4738 30.6951 15.5089C30.9376 16.5508 31.247 17.5756 31.6091 18.5525C31.9783 19.5464 32.5056 20.4684 33.1806 21.2944L33.3423 21.4932L33.49 21.2807C34.172 20.2799 34.7345 19.2174 35.1564 18.124C35.5783 17.0375 35.9228 15.903 36.1795 14.7514C36.4361 13.6032 36.6506 12.4002 36.8123 11.1731C36.974 9.94955 37.1357 8.68482 37.2939 7.41323V7.38924V7.36525C37.2658 6.90597 37.308 6.54609 37.4275 6.29931C37.5471 6.04911 37.7053 5.8606 37.9162 5.72693C38.1412 5.5864 38.3978 5.47329 38.6826 5.39789C38.9709 5.32249 39.2732 5.24023 39.5791 5.15454C39.885 5.06885 40.1697 4.94204 40.4158 4.77752C40.69 4.59587 40.8869 4.3251 40.9994 3.96864L41.0451 3.81783L38.7353 1.71338L38.6088 1.82306V1.83334Z" fill="white"/>
<path d="M56.3522 3.34482L56.2468 3.30369C55.2237 2.90268 54.2112 2.64562 53.2444 2.53594C52.2846 2.42626 51.3108 2.37142 50.351 2.37142C49.3912 2.37142 48.4315 2.37485 47.4752 2.38513C47.4295 2.38513 47.3838 2.38513 47.3381 2.38513C46.4381 2.38513 45.5029 2.29944 44.5502 2.1315L44.494 2.12122L44.4412 2.14864C44.0967 2.31658 43.7522 2.39884 43.4111 2.39884C43.0385 2.39884 42.6869 2.41255 42.3705 2.43997C42.0225 2.47082 41.7201 2.58392 41.474 2.77929C41.2068 2.99179 41.0416 3.38937 40.9678 4.00289L40.9502 4.15027L41.0627 4.22567C41.2209 4.33192 41.4037 4.46217 41.6111 4.61297C41.8256 4.77064 42.0611 4.91802 42.3072 5.05854C42.5604 5.2025 42.8275 5.31217 43.0947 5.38758C43.2389 5.42871 43.383 5.44927 43.5307 5.44927C43.6221 5.44927 43.7135 5.44242 43.8084 5.42528C44.1776 6.25815 44.4307 7.14586 44.5643 8.07127C44.7049 9.06523 44.7858 10.1106 44.8033 11.1731C44.8174 12.2459 44.8033 13.3461 44.7541 14.4429C44.7049 15.5534 44.7049 16.657 44.7541 17.723V17.7333C44.7822 18.0726 44.7471 18.3194 44.6486 18.4736C44.5397 18.6415 44.3955 18.7684 44.2092 18.8609C44.0088 18.9603 43.7838 19.0391 43.5412 19.0871C43.2705 19.1419 43.0139 19.2242 42.7713 19.327C42.5111 19.4367 42.2861 19.5978 42.1139 19.8C41.924 20.0228 41.8256 20.3484 41.8256 20.7666V20.9825H42.244C43.3479 21.0442 44.5045 21.1367 45.6787 21.2704C46.8705 21.4041 48.0869 21.4863 49.2928 21.5035C49.3983 21.5035 49.5073 21.5035 49.6163 21.5035C50.7202 21.5035 51.8311 21.4143 52.921 21.243C54.1268 21.051 55.3081 20.65 56.4331 20.0468L56.6862 19.9097L55.3995 18.4393C55.4557 18.4188 55.5155 18.4016 55.5823 18.3879C55.7932 18.3502 56.0253 18.2611 56.2678 18.124L56.5034 17.9937L55.3292 16.5097C55.4135 16.4068 55.512 16.3314 55.621 16.2834C55.8425 16.1909 56.071 16.0093 56.3206 15.7316L56.5139 15.5123L56.2678 15.3717C55.6702 15.029 55.2061 14.8611 54.8475 14.8611C54.4678 14.8611 54.169 14.9947 53.9616 15.2621C53.7717 15.5054 53.6381 15.8345 53.5643 16.232C53.501 16.5919 53.4413 16.9792 53.392 17.3802C53.3463 17.771 53.2831 18.1548 53.2128 18.525C53.1495 18.8677 53.037 19.1488 52.8788 19.3613C52.7346 19.5601 52.5272 19.6732 52.2389 19.7109C52.1967 19.7178 52.1545 19.7178 52.1088 19.7178C51.817 19.7178 51.4303 19.6081 50.9627 19.3887L50.8713 19.3442L50.7834 19.4024C50.6604 19.4847 50.5409 19.5258 50.4319 19.5258C50.3545 19.5258 50.2772 19.5053 50.2034 19.4641C49.9643 19.3305 49.7217 19.1865 49.4897 19.0357C49.2225 18.8643 48.9448 18.7752 48.6741 18.7649C48.667 18.7649 48.66 18.7649 48.653 18.7649C48.4174 18.7649 48.1889 18.902 47.9639 19.1762L47.7565 19.1385L46.9901 18.3776L46.8811 18.1308L46.9233 17.9115L47.5737 17.6784L47.5104 17.2397H47.0991C47.0991 17.2397 47.0674 17.2397 47.0498 17.2397L47.085 17.0581C47.085 17.0581 47.0744 16.7564 47.0674 16.4514C47.1131 16.4857 47.1588 16.5234 47.208 16.5576C47.2889 16.6159 47.3768 16.6468 47.4717 16.6468C47.5842 16.6468 47.7002 16.6022 47.8162 16.5165L47.8901 16.4617L47.9041 16.3623C47.9639 15.903 47.9182 15.6048 47.767 15.4197C47.6369 15.2655 47.4682 15.1524 47.2643 15.0873C47.2221 15.0736 47.1799 15.0598 47.1377 15.0496L47.2889 14.3675L47.0217 13.161C47.0217 13.161 47.0463 13.1302 47.0569 13.1131C47.194 12.9314 47.2713 12.6949 47.2924 12.4036C47.6475 12.2425 47.9534 12.1602 48.203 12.1602C48.2311 12.1602 48.2627 12.1602 48.2909 12.1637C48.5721 12.1876 48.7936 12.2802 48.9729 12.4481C49.1592 12.6229 49.3104 12.8526 49.4264 13.1302C49.553 13.4318 49.6795 13.7471 49.7955 14.0659C49.9186 14.3984 50.0522 14.7137 50.1893 15.005C50.3405 15.3238 50.5373 15.5774 50.7729 15.759L50.8854 15.8482L50.9979 15.7625C51.3565 15.4883 51.5463 15.2141 51.578 14.9296C51.6061 14.6828 51.5815 14.4258 51.5077 14.1721C51.4444 13.9494 51.3846 13.7163 51.3284 13.4798C51.2932 13.3256 51.3178 13.1439 51.4092 12.9622H52.1897L51.8452 12.5784C51.6729 12.3864 51.585 12.1534 51.578 11.8655C51.5709 11.5399 51.592 11.1868 51.6483 10.8132C51.7045 10.4294 51.7573 10.0386 51.8065 9.63762C51.8452 9.31544 51.8416 9.00697 51.7889 8.70192H52.0948L50.2702 5.85028L48.8534 7.11159L49.0362 7.28639C49.3069 7.5503 49.3702 7.70111 49.3807 7.76966C49.4018 7.88276 49.3842 7.9753 49.328 8.06785C49.2506 8.19466 49.1416 8.3249 49.001 8.45515C48.8358 8.60938 48.6916 8.78418 48.5721 8.96584C48.4385 9.17149 48.3576 9.3977 48.3401 9.6479C48.333 9.72673 48.3401 9.80899 48.3506 9.89125L46.7615 9.00354V8.88358L47.0815 7.89305C47.0815 7.89305 47.0955 7.89305 47.1026 7.89305C47.2748 7.88276 47.433 7.83821 47.5666 7.75937C47.7389 7.66341 47.8514 7.45776 47.8936 7.14929L47.9287 6.89223H47.4014L47.5807 6.33698C47.8127 6.27872 48.0201 6.15533 48.203 5.97024C48.3541 5.81601 48.4526 5.60008 48.4948 5.32246C48.5334 5.33274 48.5721 5.33617 48.6143 5.33617C48.7233 5.33617 48.8323 5.29846 48.9377 5.22306C49.117 5.09624 49.3034 4.95229 49.4932 4.79463C49.6444 4.67124 49.792 4.60269 49.9362 4.59584H49.9397C50.0065 4.59584 50.1295 4.71237 50.2631 5.04483L50.344 5.24705L50.5268 5.15794C51.1666 4.84261 51.6623 4.65753 52.0069 4.60612C52.1053 4.59241 52.1967 4.58213 52.2776 4.58213C52.4428 4.58213 52.5729 4.61297 52.6467 4.67467C52.7592 4.76035 52.8225 4.90773 52.8401 5.12024C52.8647 5.38758 52.8682 5.69605 52.8506 6.03194C52.8366 6.35069 52.819 6.70715 52.8014 7.11501C52.7838 7.5126 52.8331 7.89305 52.9456 8.24265C53.0616 8.60596 53.2655 8.91785 53.5503 9.17834C53.8421 9.44225 54.2604 9.6102 54.837 9.6856L55.0901 9.71988L55.062 9.4354C55.0339 9.15778 55.062 8.91785 55.1499 8.72249C55.2448 8.50656 55.3608 8.31462 55.4944 8.1501C55.6315 7.9753 55.7721 7.81764 55.9057 7.67712C56.071 7.50232 56.1729 7.32066 56.2046 7.13901C56.2432 6.92308 56.1659 6.714 55.976 6.51178C55.8776 6.40896 55.7299 6.29585 55.5296 6.17589L56.7811 5.5658L56.3346 3.34482H56.3522Z" fill="white"/>
<path d="M75.1856 15.19V14.7548L75.0415 14.3777L75.3579 13.7814L74.5528 13.1027L73.9622 12.215L73.6844 12.0265C73.695 11.8654 73.6844 11.7386 73.6563 11.6358C73.579 11.365 73.4243 11.2588 73.3047 11.2176C73.2169 11.1868 73.1149 11.1696 73.0094 11.1696C72.9567 11.1696 72.904 11.1731 72.8477 11.1799C72.7844 11.1868 72.7176 11.1936 72.6579 11.1936C72.5981 11.1936 72.5383 11.1902 72.4821 11.1833C72.454 11.1799 72.4293 11.1731 72.4047 11.1594L72.3415 11.1148C72.3239 11.0977 72.3063 11.0805 72.2887 11.0565C72.2641 11.0223 72.2044 10.9092 72.2044 10.5664V10.3573L72.018 10.3402C71.3958 10.2854 70.7313 10.2237 70.0422 10.1517C69.3602 10.0797 68.6746 9.97688 68.0067 9.84321C67.3387 9.70954 66.6848 9.53817 66.059 9.33595C65.7602 9.23998 65.4754 9.12345 65.1977 8.98978L64.8707 8.63675L64.6985 7.6565L64.5438 7.35146L64.7266 6.58371L64.9235 5.99761C64.9481 5.98048 64.9727 5.96334 64.9973 5.9462C65.1942 5.81253 65.3875 5.66172 65.4824 5.49378V5.60003L65.609 5.66172C65.7426 5.73027 65.8797 5.76797 66.0028 5.76797C66.1258 5.76797 66.2418 5.7337 66.3438 5.66515C66.5055 5.56233 66.6707 5.43894 66.836 5.29841C66.9766 5.17845 67.1418 5.08591 67.3211 5.02079C67.3598 5.00708 67.402 5.00022 67.4477 5.00022C67.5848 5.00022 67.7535 5.05849 67.9539 5.16817L68.2457 5.32926V5.30184C68.3407 5.40124 68.4461 5.45607 68.5621 5.46978C68.6289 5.48007 68.6993 5.48349 68.7731 5.48349C68.9383 5.48349 69.1211 5.4595 69.3145 5.41152C69.4621 5.37382 69.6274 5.35668 69.7961 5.35668C69.8946 5.35668 70 5.36353 70.1055 5.37382C70.3586 5.40124 70.654 5.62059 70.9774 6.02503C71.0864 6.35407 71.1989 6.65568 71.3079 6.9196C71.4204 7.19379 71.5504 7.47484 71.6876 7.75589C71.8247 8.03695 71.9899 8.34199 72.1797 8.66417C72.3661 8.98292 72.5911 9.35309 72.8477 9.76438L72.9497 9.9289L73.1079 9.83293C73.3575 9.68212 73.5508 9.42506 73.6809 9.07204C73.7618 8.85268 73.8426 8.62647 73.927 8.3934L74.486 9.04119L74.6266 8.81498C74.7637 8.59562 74.8305 8.36255 74.8305 8.1192C74.8305 7.91356 74.8165 7.70448 74.7919 7.49198C74.7673 7.30347 74.7532 7.10811 74.7462 6.91617C74.7391 6.76879 74.7813 6.62826 74.8657 6.48774L74.936 6.37463L74.8762 6.25124C74.7708 6.02846 74.6442 5.67543 74.5036 5.19216C74.3559 4.6849 74.1626 4.1982 73.9305 3.74578C73.6879 3.27279 73.3856 2.91633 73.034 2.69012C72.8864 2.59415 72.7211 2.54617 72.5489 2.54617C72.3626 2.54617 72.1657 2.60443 71.9442 2.72097V2.21028L71.6348 2.43992C71.0864 2.84436 70.8297 2.95403 70.7032 2.9746C70.661 2.98145 70.6188 2.98488 70.5801 2.98488C70.4711 2.98488 70.3797 2.95746 70.2954 2.8992C70.1477 2.79637 69.9719 2.65242 69.7715 2.46734C69.536 2.25483 69.1844 2.09374 68.6957 1.97721L68.6395 1.9635L68.5832 1.98749C68.1719 2.15887 67.7571 2.24798 67.3457 2.25826C66.9098 2.26854 66.4703 2.28568 66.0344 2.3131C65.5879 2.34052 65.1485 2.41935 64.7266 2.5496C64.2836 2.68669 63.8617 2.96774 63.4715 3.38932L63.4469 3.41674L63.4328 3.45102C63.2746 3.80062 63.0848 4.16735 62.8668 4.53409C62.6383 4.91796 62.4344 5.31898 62.2621 5.72342C62.0828 6.13814 61.9738 6.57 61.9281 6.99843C61.8824 7.44742 61.9773 7.90328 62.2023 8.3557C62.35 8.7053 62.5574 9.0926 62.8211 9.5039C63.0848 9.91862 63.3871 10.3231 63.7211 10.7069C64.0586 11.0942 64.4278 11.4438 64.825 11.7489C65.2328 12.0608 65.6758 12.2767 66.1328 12.3898L66.3824 12.4515V12.1876C66.4774 12.2287 66.5688 12.2527 66.6742 12.2527C66.7059 12.2527 66.734 12.2527 66.7657 12.2459C67.0188 12.215 67.2543 12.191 67.4864 12.1636C67.5321 12.1567 67.5778 12.1567 67.6235 12.1567C67.7852 12.1567 67.9434 12.191 68.0875 12.2561C68.1016 12.263 68.1121 12.2698 68.1262 12.2801C68.5586 12.263 68.9735 12.3692 69.2899 12.6263L69.5043 12.4378C69.7996 12.6057 70.1793 12.7977 70.6329 13.0136C71.1321 13.2501 71.575 13.5312 71.9547 13.8499C72.3098 14.1515 72.5383 14.5011 72.6297 14.8919C72.7141 15.2483 72.5243 15.687 72.0672 16.2011L72.0532 16.2183L72.0426 16.2388C71.8352 16.5953 71.6032 16.962 71.35 17.3322C71.104 17.6955 70.8297 18.0143 70.5379 18.2816C70.2532 18.5387 69.9543 18.7203 69.645 18.8197C69.5289 18.8574 69.4094 18.8745 69.2899 18.8745C69.1703 18.8745 69.0508 18.854 68.9278 18.8197L68.7555 18.5901L68.6993 18.6381C68.5868 18.7203 68.4145 18.7614 68.1825 18.7614C68.1508 18.7614 68.1157 18.7614 68.0805 18.7614C67.7219 18.7443 67.3422 18.662 66.952 18.5181C66.5547 18.3707 66.1715 18.1753 65.8059 17.9423C65.4613 17.7195 65.2117 17.4693 65.0711 17.1985L65.0043 17.0751L64.8778 17.0888C64.8074 17.0957 64.7442 17.0991 64.6844 17.0991C64.484 17.0991 64.3363 17.0614 64.2449 16.9826C64.1149 16.8729 64.0235 16.729 63.9637 16.5473C63.8969 16.3382 63.8477 16.0949 63.816 15.8241C63.7809 15.5225 63.7176 15.2175 63.6262 14.9261C63.5277 14.6177 63.3766 14.34 63.1727 14.1035C62.9582 13.8533 62.6313 13.6854 62.2023 13.6031L61.9035 13.5483L61.9738 13.8808C62.0793 14.3743 62.1039 14.9021 62.0406 15.4505C61.9773 16.0263 61.9035 16.6021 61.8262 17.1608C61.7453 17.7366 61.6961 18.3056 61.6785 18.8506C61.6609 19.4264 61.7664 19.9713 61.9914 20.4717L62.0371 20.5711L62.1356 20.5917C62.2727 20.6225 62.4098 20.6363 62.5328 20.6363C62.8352 20.6363 63.0988 20.5506 63.3238 20.3792C63.5805 20.1873 63.7352 19.9028 63.7949 19.5326C64.3926 19.8719 65.0078 20.1907 65.6301 20.482C66.3543 20.8213 67.1207 21.0784 67.9012 21.2532C68.6114 21.4109 69.3532 21.4897 70.1125 21.4897C70.1934 21.4897 70.2743 21.4897 70.3586 21.4897C71.2094 21.4726 72.12 21.3046 73.0692 20.9961L73.252 20.9344L73.2098 20.7254C73.2098 20.7254 73.2098 20.7117 73.2063 20.7048L73.9833 20.5917C74.0852 20.5917 74.1872 20.5677 74.2786 20.5232C74.4508 20.4409 74.5669 20.2524 74.6512 19.9508V19.9199L74.6548 19.8856C74.6548 19.7725 74.6512 19.6697 74.6442 19.5703L75.1856 18.6963V17.0272C75.2454 16.9106 75.2981 16.7907 75.3473 16.6638C75.4774 16.3245 75.5091 15.9818 75.4458 15.6493C75.4106 15.4745 75.3262 15.3203 75.1856 15.1832" fill="white"/>
<path d="M102.298 18.1925C101.926 17.7915 101.669 17.3253 101.542 16.8078C101.412 16.2765 101.37 15.7007 101.416 15.0906C101.465 14.4566 101.525 13.8088 101.595 13.1678C101.669 12.5132 101.722 11.8723 101.753 11.2622C101.788 10.6178 101.711 10.0249 101.521 9.49018V9.48333L101.514 9.47647C101.307 8.99663 101.24 8.47908 101.314 7.93069C101.391 7.36516 101.556 6.80649 101.813 6.2718C102.07 5.73369 102.39 5.22986 102.762 4.77743C103.131 4.32844 103.518 3.96855 103.901 3.7115L104.116 3.56754L102.889 2.12801L96.6099 2.3508L96.5747 2.51874C96.4481 3.10484 96.4903 3.57097 96.7013 3.90343C96.8981 4.21533 97.1653 4.45525 97.4993 4.61634C97.8122 4.76715 98.1392 4.8734 98.4802 4.93167C98.7087 4.96937 98.895 5.00707 99.0357 5.04477C99.0497 5.37038 99.0989 5.69942 99.1833 6.02845C99.2782 6.38834 99.3556 6.76536 99.4189 7.14238C99.4786 7.50569 99.4962 7.87242 99.4646 8.22888C99.44 8.53735 99.3239 8.83896 99.12 9.12344C98.6384 9.22284 98.1286 9.32224 97.6048 9.4182C97.0704 9.51417 96.536 9.56216 96.0087 9.56216C95.4813 9.56216 94.954 9.49704 94.4231 9.36337C93.9555 9.24683 93.4915 9.04804 93.045 8.77384L93.4177 7.85871L93.3016 7.74903C93.052 7.51254 92.9325 7.28633 92.9501 7.07725C92.9712 6.8202 93.045 6.56314 93.168 6.31293C93.3052 6.02845 93.4387 5.75426 93.5583 5.4972C93.6391 5.31897 93.6778 5.13732 93.6743 4.95566C93.7095 4.95909 93.7446 4.96252 93.7798 4.96252C93.8852 4.96252 93.9907 4.94195 94.0962 4.90425C94.3317 4.81514 94.5567 4.68832 94.7641 4.5238C94.961 4.36614 95.1544 4.19819 95.3337 4.02339C95.4884 3.87259 95.636 3.77662 95.7661 3.73206L96.0895 3.62238L95.8505 3.35504C95.5165 2.97802 95.1825 2.69697 94.8555 2.51531C94.5567 2.3508 94.2473 2.14858 93.9345 1.91894L93.8149 1.83325L93.7024 1.93265C93.3755 2.2137 93.052 2.38507 92.7426 2.44334C92.5669 2.47419 92.3911 2.49132 92.2153 2.49132C92.0641 2.49132 91.913 2.47761 91.7653 2.45705C91.4278 2.40564 91.0938 2.33709 90.7809 2.25826C90.5032 2.18971 90.2325 2.15201 89.9794 2.15201C89.9231 2.15201 89.8669 2.152 89.8106 2.15543C89.4837 2.176 89.1813 2.29253 88.9106 2.50503C88.6329 2.72439 88.4044 3.09798 88.211 3.64637L88.1301 3.88287L88.3481 3.94799C89.1004 4.17077 89.6735 4.4861 90.0497 4.88026C90.4258 5.27441 90.686 5.73369 90.8266 6.24438C90.9743 6.76878 91.0411 7.3446 91.034 7.95811C91.027 8.60247 91.013 9.25711 90.9989 9.90148C90.9813 10.5664 91.0024 11.2382 91.0587 11.9031C91.1149 12.5612 91.2766 13.1884 91.5438 13.7676C91.4524 14.3263 91.3329 14.8953 91.1993 15.4574C91.0587 16.04 90.8794 16.609 90.6649 17.1574C90.454 17.6989 90.1903 18.213 89.8774 18.6826C89.5715 19.1453 89.1919 19.5463 88.7454 19.8719L88.5766 19.9953L88.6856 20.1838C88.9598 20.6534 89.3571 20.9344 89.8739 21.027C90.2571 21.0955 90.6719 21.1298 91.1044 21.1298C91.1993 21.1298 91.2977 21.1298 91.3962 21.1264C91.9059 21.1092 92.4333 21.0955 93.0098 21.0853C93.0309 21.0853 93.0485 21.0853 93.0696 21.0853C93.5583 21.0853 93.9942 21.1915 94.3669 21.4006L94.5532 21.5034L94.6411 21.2909C94.7184 21.1092 94.852 20.9721 95.0559 20.8762C95.3091 20.7596 95.5376 20.6431 95.7309 20.5334C95.97 20.3998 96.1282 20.2181 96.2056 19.9919C96.2899 19.7348 96.1845 19.4161 95.8681 18.9979L95.8013 18.9088L95.6993 18.9157C95.6149 18.9225 95.5341 18.926 95.4567 18.926C94.954 18.926 94.5462 18.7854 94.2509 18.5078C93.8923 18.1753 93.6251 17.7401 93.4528 17.2122C93.277 16.6707 93.1786 16.064 93.1645 15.406C93.1469 14.7342 93.1645 14.0967 93.2102 13.514V13.4866V13.4592C93.1188 12.8045 93.168 12.5098 93.2278 12.3795C93.3016 12.2116 93.4071 12.119 93.5477 12.095C93.5969 12.0848 93.6497 12.0813 93.7094 12.0813C93.8571 12.0813 94.0329 12.1122 94.2262 12.1704C94.5286 12.263 94.845 12.335 95.1649 12.3932C95.3442 12.4241 95.527 12.4412 95.7098 12.4412C95.861 12.4412 96.0122 12.4309 96.1634 12.4104C96.5114 12.359 96.8208 12.1739 97.088 11.8517C97.4009 11.7249 97.6786 11.6598 97.9142 11.6598C98.1251 11.6598 98.3079 11.7112 98.4591 11.814C98.8036 12.0471 99.0638 12.4104 99.2325 12.8936C99.4083 13.4009 99.5103 13.9562 99.5313 14.5525C99.556 15.1592 99.5419 15.6699 99.4962 16.0675V16.1086L99.4997 16.1497C99.6263 16.7701 99.6087 17.2225 99.4399 17.459C99.2536 17.7263 98.9935 17.9389 98.6735 18.0931C98.3185 18.2645 97.9493 18.4461 97.5731 18.6346C97.1548 18.8437 96.8278 19.2104 96.5993 19.7246L96.5852 19.7725V19.824C96.5852 20.4717 96.8313 20.7014 97.0423 20.7802C97.2251 20.8488 97.429 20.883 97.6575 20.883C97.7313 20.883 97.8087 20.8796 97.8895 20.8728C98.1778 20.8453 98.4837 20.8145 98.8001 20.7768C98.8423 20.7699 98.8845 20.7699 98.9267 20.7699C99.1095 20.7699 99.2431 20.8213 99.338 20.9276L99.4329 21.0338L99.556 20.979C99.7001 20.9139 99.8653 20.8796 100.041 20.8796C100.115 20.8796 100.196 20.8865 100.277 20.8967C100.572 20.9413 100.888 21.0064 101.208 21.0955C101.535 21.1846 101.862 21.2669 102.182 21.3423C102.361 21.3834 102.537 21.404 102.699 21.404C102.843 21.404 102.984 21.3869 103.114 21.356C103.413 21.2806 103.666 21.0818 103.873 20.7699C104.074 20.4615 104.19 20.0056 104.225 19.3818L104.235 19.1933L104.074 19.1487C103.276 18.926 102.681 18.6072 102.305 18.2062" fill="white"/>
<path d="M117.278 13.7711C117.296 13.3872 117.275 13.0102 117.215 12.6503C117.159 12.3041 117.029 11.9477 116.828 11.5912C116.916 11.0051 116.923 10.4293 116.853 9.87749C116.779 9.31196 116.677 8.74643 116.547 8.19118C116.421 7.6565 116.297 7.09782 116.174 6.53229C116.058 5.99418 115.999 5.43894 115.999 4.88369V4.81171L115.964 4.75344C115.637 4.2359 115.253 3.86231 114.817 3.6498C114.406 3.44759 113.967 3.28307 113.517 3.16311C113.084 3.05 112.631 2.92661 112.167 2.7998C111.738 2.68326 111.319 2.4502 110.926 2.11088L110.88 2.07318L110.82 2.06632C110.725 2.05604 110.627 2.05261 110.532 2.05261C110.085 2.05261 109.66 2.16572 109.263 2.3885C108.799 2.64899 108.356 2.98145 107.941 3.37904C107.533 3.76977 107.136 4.1982 106.756 4.65405C106.383 5.09619 106.011 5.49035 105.652 5.82281L105.613 5.85708L105.596 5.9085C105.283 6.75165 105.076 7.6325 104.977 8.52021C104.879 9.40107 104.833 10.2922 104.844 11.1731C104.851 12.0505 104.896 12.9348 104.977 13.8019C105.058 14.6554 105.128 15.4985 105.195 16.3108V16.3588L105.22 16.3999C105.473 16.9175 105.719 17.4247 105.94 17.908C106.169 18.4016 106.429 18.8643 106.707 19.279C106.988 19.6971 107.322 20.0742 107.698 20.4032C108.078 20.7322 108.542 20.9859 109.076 21.1572C109.653 21.3903 110.237 21.5068 110.813 21.5068C110.834 21.5068 110.855 21.5068 110.88 21.5068C111.474 21.4965 112.061 21.404 112.631 21.2292C113.197 21.0544 113.752 20.8076 114.276 20.4957C114.796 20.1873 115.278 19.8411 115.703 19.4744L115.83 19.3647L115.763 19.2002C115.689 19.0219 115.672 18.878 115.71 18.7649C115.756 18.6278 115.833 18.501 115.935 18.3913C116.062 18.2576 116.192 18.1308 116.322 18.0074C116.473 17.8669 116.593 17.7229 116.677 17.5755C116.79 17.3802 116.797 17.1642 116.702 16.9483C116.642 16.8181 116.537 16.6878 116.371 16.5405C116.385 16.5267 116.399 16.513 116.414 16.4993C116.487 16.4239 116.565 16.3588 116.635 16.3005C116.691 16.256 116.747 16.2286 116.8 16.2148C116.807 16.2148 116.814 16.2148 116.821 16.2148C116.853 16.2148 116.892 16.2286 116.934 16.2525L117.275 16.4445L117.222 16.0229C117.176 15.6459 117.169 15.2723 117.197 14.9124C117.229 14.5285 117.254 14.1481 117.271 13.7814M114.578 13.5826C114.483 13.6374 114.371 13.7368 114.28 13.8808C114.174 14.0418 114.072 14.1755 113.984 14.2749L113.822 14.4566L114.005 14.6142C114.322 14.885 114.41 15.0495 114.434 15.1215C114.469 15.2312 114.466 15.3203 114.424 15.406C114.364 15.5225 114.265 15.639 114.128 15.7556C113.963 15.8927 113.801 16.0435 113.643 16.2011C113.478 16.3691 113.334 16.5576 113.221 16.7632C113.098 16.9826 113.06 17.2294 113.098 17.4967C113 17.7469 112.828 17.9251 112.571 18.0382C112.304 18.1548 111.998 18.213 111.66 18.213C111.618 18.213 111.572 18.213 111.527 18.213C111.129 18.1959 110.718 18.1102 110.303 17.956C109.906 17.8086 109.562 17.6098 109.284 17.3699C108.974 16.7941 108.658 16.1257 108.349 15.3854C108.032 14.6348 107.772 13.8636 107.575 13.0959C107.382 12.335 107.287 11.5809 107.294 10.8509C107.301 10.1483 107.477 9.52103 107.818 8.98635C108.127 8.58191 108.422 8.10549 108.693 7.56396C108.95 7.04984 109.242 6.58028 109.562 6.16898C109.871 5.77483 110.237 5.47664 110.658 5.2847C110.845 5.19901 111.059 5.15446 111.291 5.15446C111.562 5.15446 111.871 5.21272 112.209 5.32926C112.469 5.43893 112.697 5.65829 112.891 5.9839C113.102 6.34378 113.302 6.74479 113.481 7.18351C113.664 7.62908 113.844 8.0815 114.009 8.52707C114.174 8.96578 114.367 9.33595 114.585 9.63071V13.5894L114.578 13.5826Z" fill="white"/>
<path d="M132.086 5.02769C132.139 4.7295 132.255 4.41075 132.434 4.07486L132.533 3.8932L132.378 3.77324C132.093 3.55388 131.837 3.2694 131.619 2.92323C131.362 2.51879 131.06 2.24117 130.715 2.10064L130.666 2.08008L130.613 2.08693C129.632 2.25488 128.662 2.34056 127.734 2.34056C127.688 2.34056 127.639 2.34056 127.593 2.34056C126.609 2.33028 125.621 2.30286 124.654 2.25831C123.962 2.22746 123.248 2.21032 122.534 2.21032C122.249 2.21032 121.961 2.21032 121.673 2.21718C120.66 2.23431 119.595 2.36456 118.512 2.60105L118.361 2.63533L118.351 2.8067C118.301 3.60529 118.245 4.36962 118.182 5.08253C118.119 5.79886 118.087 6.49464 118.097 7.14928C118.104 7.81078 118.171 8.46885 118.294 9.11321C118.417 9.76443 118.649 10.4294 118.98 11.0943L119.135 11.4027L119.971 10.1037L119.982 10.0558C120.038 9.74729 120.144 9.47652 120.288 9.25031C120.456 8.98639 120.59 8.72934 120.692 8.48256C120.812 8.19465 120.822 7.88961 120.724 7.58457C120.643 7.33093 120.439 7.05331 120.098 6.73456C120.193 6.64544 120.281 6.56319 120.369 6.48778C120.527 6.35068 120.646 6.22387 120.738 6.10391C120.854 5.94967 120.903 5.7783 120.892 5.59322C120.885 5.48354 120.847 5.37043 120.773 5.24704C120.991 5.15108 121.212 5.04482 121.427 4.93515C121.712 4.79119 121.996 4.68151 122.278 4.61297C122.422 4.57869 122.573 4.56155 122.721 4.56155C122.854 4.56155 122.991 4.57526 123.128 4.60268C123.392 4.65409 123.684 4.79462 123.993 5.02083C123.933 6.14846 123.909 7.2521 123.916 8.3009C123.923 9.40112 123.937 10.4842 123.951 11.5193C123.965 12.5647 123.965 13.6169 123.951 14.6451C123.937 15.6219 123.877 16.6193 123.775 17.6099L120.615 18.9706L120.622 19.1351C120.657 19.896 120.808 20.4375 121.082 20.7871C121.353 21.1299 121.694 21.3492 122.098 21.4383C122.292 21.4829 122.499 21.5034 122.717 21.5034C122.935 21.5034 123.16 21.4829 123.403 21.4383C123.86 21.3561 124.32 21.2772 124.777 21.195C125.224 21.1161 125.667 21.075 126.099 21.075C126.503 21.075 126.872 21.1813 127.192 21.3938L127.347 21.4966L127.456 21.3355C127.523 21.2327 127.649 21.1573 127.825 21.1093C128.036 21.051 128.265 21.0099 128.5 20.9928C128.753 20.9756 129.003 20.9482 129.239 20.9105C129.499 20.8694 129.713 20.7905 129.875 20.674C130.015 20.5712 130.177 20.3724 130.146 19.9919C130.128 19.7315 129.987 19.4024 129.724 18.9877L129.657 18.8814L129.541 18.8952C129.309 18.9226 129.084 18.9329 128.88 18.9329C128.282 18.9329 127.808 18.8198 127.463 18.597C126.999 18.2954 126.683 17.8806 126.486 17.3322C126.285 16.7667 126.19 16.1018 126.197 15.3512C126.205 14.5697 126.233 13.7711 126.282 12.9725C126.331 12.1602 126.352 11.3582 126.342 10.5904C126.335 9.81241 126.222 9.13377 126.011 8.5751C125.969 8.12953 125.965 7.60856 126.004 7.02932C126.043 6.44322 126.155 5.91197 126.338 5.43898C126.514 4.98313 126.774 4.65067 127.126 4.42103C127.287 4.31478 127.477 4.26336 127.695 4.26336C127.924 4.26336 128.187 4.32163 128.479 4.43817L128.493 4.44502H128.507C128.919 4.54099 129.179 4.72264 129.277 4.98998C129.393 5.29846 129.446 5.66177 129.432 6.06963C129.418 6.50149 129.376 6.94706 129.312 7.39606C129.249 7.85191 129.26 8.26663 129.348 8.61966C129.26 8.89043 129.277 9.18176 129.4 9.48337C129.527 9.78499 129.717 10.0489 129.966 10.2683C130.209 10.4808 130.487 10.6453 130.792 10.7515C130.937 10.8029 131.077 10.8269 131.218 10.8269C131.397 10.8269 131.573 10.7858 131.742 10.7001L131.819 10.6624L131.851 10.5767C132.005 10.138 132.079 9.6616 132.069 9.16462C132.062 8.69163 132.044 8.22893 132.019 7.79021C131.995 7.36521 131.998 6.97448 132.03 6.63859C132.055 6.35754 132.16 6.16903 132.364 6.04221L132.635 5.87084L132.381 5.66519C132.062 5.40128 132.062 5.17507 132.086 5.02426" fill="white"/>
<path d="M155.434 13.3358L155.381 13.2844H155.318C154.822 13.2844 154.347 13.4249 153.908 13.6854C153.482 13.939 153.082 14.2749 152.716 14.6759C152.35 15.0735 152.02 15.5396 151.732 16.0572C151.457 16.5439 151.218 17.0511 151.011 17.555C150.498 17.8566 149.991 18.0177 149.506 18.0348C149.471 18.0348 149.432 18.0348 149.397 18.0348C148.933 18.0348 148.497 17.932 148.1 17.7298C147.668 17.5104 147.281 17.1882 146.947 16.7701C146.616 16.3588 146.349 15.8687 146.152 15.3169C146.103 14.5183 146.057 13.6785 146.008 12.8148C145.959 11.9477 145.966 11.0668 146.019 10.1997C146.075 9.33595 146.201 8.48937 146.398 7.67707C146.581 6.92303 146.884 6.21012 147.298 5.56233C147.446 5.55547 147.625 5.46293 147.864 5.27442C148.118 5.07563 148.413 4.89055 148.736 4.72603C149 4.59236 149.281 4.52381 149.566 4.52381C149.612 4.52381 149.657 4.52381 149.703 4.52724C150.005 4.55123 150.297 4.7843 150.564 5.22644L150.589 5.26757L150.628 5.29156C151.067 5.57947 151.447 5.96334 151.749 6.4329C152.052 6.89904 152.364 7.37888 152.702 7.90328C153.025 8.40369 153.384 8.8424 153.774 9.20571C154.189 9.58959 154.706 9.78495 155.314 9.78495H155.497L155.514 9.5793C155.564 8.98978 155.56 8.41054 155.5 7.85529C155.444 7.31718 155.377 6.77908 155.307 6.25125C155.237 5.7337 155.17 5.20587 155.114 4.67805C155.061 4.16393 155.054 3.62239 155.103 3.06372L155.152 2.49133L154.769 2.87521C154.491 3.15283 154.217 3.32078 153.95 3.37561C153.82 3.40303 153.69 3.41674 153.56 3.41674C153.412 3.41674 153.268 3.39961 153.12 3.36533C152.843 3.29678 152.561 3.1871 152.287 3.03287C151.995 2.87178 151.696 2.71412 151.394 2.56674C151.085 2.41936 150.768 2.30282 150.452 2.22742C150.329 2.19657 150.202 2.18286 150.076 2.18286C149.861 2.18286 149.643 2.22742 149.429 2.3131C148.923 2.48448 148.413 2.6627 147.91 2.84093C147.418 3.01573 146.961 3.23509 146.557 3.49558C146.145 3.75949 145.78 4.08852 145.467 4.4724C145.15 4.86313 144.904 5.37039 144.735 5.97705V5.98733L144.732 5.99762C144.408 7.76618 144.219 9.61358 144.162 11.4918C144.106 13.3495 144.082 15.1249 144.082 16.7667V16.8832L144.162 16.9483C144.51 17.2191 144.851 17.627 145.175 18.1616C145.519 18.7272 145.906 19.2824 146.328 19.8068C146.76 20.3449 147.26 20.7939 147.815 21.1367C148.195 21.3697 148.631 21.4897 149.119 21.4897C149.376 21.4897 149.65 21.4589 149.935 21.3937C150.406 21.3389 150.902 21.2464 151.408 21.1195C151.925 20.9893 152.438 20.8042 152.93 20.5643C153.426 20.3244 153.897 20.0159 154.326 19.6423C154.759 19.2687 155.149 18.806 155.479 18.2679L155.518 18.2096V18.1411C155.518 17.7709 155.581 17.3836 155.708 16.986C155.845 16.561 155.961 16.136 156.059 15.7247C156.161 15.2929 156.189 14.8644 156.137 14.4669C156.08 14.035 155.841 13.6477 155.427 13.3221" fill="white"/>
<path d="M171.335 18.1925C170.962 17.7915 170.705 17.3253 170.579 16.8078C170.449 16.2765 170.407 15.7007 170.452 15.0906C170.502 14.4566 170.561 13.8088 170.632 13.1678C170.705 12.5132 170.758 11.8723 170.79 11.2622C170.825 10.6178 170.748 10.0249 170.558 9.49018V9.48333L170.551 9.47647C170.343 8.99663 170.277 8.47908 170.35 7.93069C170.428 7.36516 170.593 6.80649 170.85 6.2718C171.106 5.73369 171.426 5.22986 171.799 4.77743C172.172 4.32844 172.555 3.96855 172.938 3.7115L173.152 3.56754L171.925 2.12801L165.646 2.3508L165.611 2.51874C165.485 3.10484 165.527 3.57097 165.738 3.90343C165.935 4.21533 166.202 4.45525 166.536 4.61634C166.849 4.76715 167.176 4.8734 167.517 4.93167C167.745 4.96937 167.932 5.00707 168.072 5.04477C168.086 5.37038 168.136 5.69942 168.22 6.02845C168.315 6.38834 168.392 6.76536 168.455 7.14238C168.515 7.50569 168.533 7.87242 168.501 8.22888C168.477 8.53735 168.361 8.83896 168.157 9.12344C167.675 9.22284 167.165 9.32224 166.641 9.4182C166.107 9.51417 165.573 9.56216 165.045 9.56216C164.518 9.56216 163.991 9.49704 163.46 9.36337C162.992 9.24683 162.528 9.04804 162.082 8.77384L162.454 7.85871L162.338 7.74903C162.089 7.51254 161.969 7.28633 161.987 7.07725C162.008 6.8202 162.082 6.56314 162.205 6.31293C162.342 6.02845 162.475 5.75426 162.595 5.4972C162.676 5.31897 162.714 5.13732 162.711 4.95566C162.746 4.95909 162.781 4.96252 162.816 4.96252C162.922 4.96252 163.027 4.94195 163.133 4.90425C163.368 4.81514 163.593 4.68832 163.801 4.5238C163.998 4.36614 164.191 4.19819 164.37 4.02339C164.525 3.87259 164.673 3.77662 164.803 3.73206L165.126 3.62238L164.887 3.35504C164.553 2.97802 164.216 2.69697 163.892 2.51531C163.593 2.3508 163.284 2.14858 162.971 1.91894L162.852 1.83325L162.739 1.93265C162.412 2.2137 162.089 2.38507 161.779 2.44334C161.603 2.47419 161.428 2.49132 161.252 2.49132C161.101 2.49132 160.95 2.47761 160.802 2.45705C160.464 2.40564 160.13 2.33709 159.818 2.25826C159.54 2.18971 159.269 2.15201 159.016 2.15201C158.96 2.15201 158.903 2.152 158.847 2.15543C158.52 2.176 158.218 2.29253 157.947 2.50503C157.669 2.72439 157.441 3.09798 157.248 3.64637L157.167 3.88287L157.385 3.94799C158.137 4.17077 158.71 4.4861 159.086 4.88026C159.462 5.27441 159.723 5.73369 159.863 6.24438C160.011 6.76878 160.078 7.3446 160.071 7.95811C160.064 8.60247 160.05 9.25711 160.036 9.90148C160.018 10.5664 160.039 11.2382 160.095 11.9031C160.152 12.5612 160.313 13.1884 160.58 13.7676C160.489 14.3263 160.37 14.8953 160.236 15.4574C160.095 16.04 159.916 16.609 159.702 17.1574C159.491 17.6989 159.227 18.213 158.914 18.6826C158.608 19.1453 158.228 19.5463 157.782 19.8719L157.613 19.9953L157.722 20.1838C157.996 20.6534 158.394 20.9344 158.911 21.027C159.297 21.0955 159.709 21.1298 160.141 21.1298C160.236 21.1298 160.334 21.1298 160.433 21.1264C160.943 21.1092 161.47 21.0955 162.046 21.0853C162.068 21.0853 162.085 21.0853 162.106 21.0853C162.595 21.0853 163.031 21.1915 163.404 21.4006L163.59 21.5034L163.678 21.2909C163.755 21.1092 163.889 20.9721 164.093 20.8762C164.346 20.7596 164.574 20.6431 164.768 20.5334C165.007 20.3998 165.165 20.2181 165.242 19.9919C165.327 19.7348 165.221 19.4161 164.905 18.9979L164.838 18.9088L164.736 18.9157C164.652 18.9225 164.571 18.926 164.493 18.926C163.991 18.926 163.583 18.7854 163.287 18.5078C162.929 18.1753 162.662 17.7401 162.489 17.2122C162.314 16.6707 162.215 16.064 162.201 15.406C162.184 14.7342 162.201 14.0967 162.247 13.514V13.4866V13.4592C162.155 12.8045 162.205 12.5098 162.264 12.3795C162.342 12.2116 162.444 12.119 162.588 12.095C162.637 12.0848 162.69 12.0813 162.75 12.0813C162.897 12.0813 163.073 12.1122 163.266 12.1704C163.569 12.263 163.885 12.335 164.205 12.3932C164.384 12.4241 164.567 12.4412 164.75 12.4412C164.901 12.4412 165.052 12.4309 165.204 12.4104C165.552 12.359 165.861 12.1739 166.128 11.8517C166.441 11.7249 166.719 11.6598 166.954 11.6598C167.165 11.6598 167.348 11.7112 167.499 11.814C167.844 12.0471 168.104 12.4104 168.273 12.8936C168.448 13.4009 168.55 13.9562 168.571 14.5525C168.596 15.1592 168.582 15.6699 168.536 16.0675V16.1086V16.1497C168.663 16.7701 168.645 17.2225 168.477 17.459C168.29 17.7263 168.03 17.9389 167.71 18.0931C167.355 18.2645 166.982 18.4461 166.61 18.6346C166.188 18.8437 165.861 19.2104 165.629 19.7246L165.604 19.7725V19.824C165.604 20.4717 165.857 20.7014 166.068 20.7802C166.251 20.8488 166.462 20.883 166.691 20.883C166.764 20.883 166.842 20.8796 166.923 20.8728C167.211 20.8453 167.517 20.8145 167.833 20.7768C167.875 20.7699 167.918 20.7699 167.96 20.7699C168.143 20.7699 168.276 20.8213 168.371 20.9276L168.466 21.0338L168.589 20.979C168.733 20.9139 168.898 20.8796 169.074 20.8796C169.148 20.8796 169.229 20.8865 169.31 20.8967C169.605 20.9413 169.921 21.0064 170.241 21.0955C170.568 21.1846 170.895 21.2669 171.215 21.3423C171.395 21.3834 171.57 21.404 171.732 21.404C171.876 21.404 172.017 21.3869 172.147 21.356C172.442 21.2806 172.699 21.0818 172.906 20.7699C173.11 20.4615 173.223 20.0056 173.258 19.3818L173.268 19.1933L173.107 19.1487C172.309 18.926 171.714 18.6072 171.338 18.2062" fill="white"/>
<path d="M182.965 2.51535C182.11 2.28571 181.214 2.17261 180.307 2.17261C180.272 2.17261 180.237 2.17261 180.201 2.17261C179.263 2.18289 178.303 2.25144 177.35 2.39539C176.415 2.53592 175.483 2.60447 174.576 2.60447H174.372V4.63352L177.663 5.14421C177.663 5.35671 177.726 5.55893 177.853 5.74744C177.99 5.95309 178.113 6.15188 178.222 6.33353C178.313 6.48434 178.359 6.62487 178.359 6.74826C178.359 6.74826 178.349 6.87164 177.99 7.07386L177.86 7.14584L177.881 7.30693C177.994 8.16722 178.085 9.08921 178.159 10.0489C178.229 11.012 178.271 11.9923 178.278 12.9657C178.285 13.9356 178.261 14.8987 178.208 15.8276C178.159 16.6673 178.064 17.4625 177.927 18.1959C177.688 18.1445 177.463 18.1205 177.248 18.1205C177.09 18.1205 176.935 18.1343 176.791 18.1617C176.397 18.2371 176.039 18.3776 175.726 18.5798C175.413 18.7786 175.128 19.0254 174.882 19.3064C174.647 19.5806 174.418 19.8651 174.207 20.1599L174.112 20.2935L174.861 21.5034H184.241L184.301 21.4143C184.772 20.7186 185.039 20.2113 185.12 19.8617C185.239 19.3441 185.056 19.0768 184.881 18.9431C184.673 18.782 184.381 18.6929 183.995 18.6621C183.661 18.6347 183.299 18.5798 182.922 18.4907C182.56 18.405 182.212 18.2508 181.889 18.0314C181.594 17.8326 181.362 17.5002 181.203 17.0306C181.214 16.7153 181.333 16.6022 181.629 16.6022H181.942L181.812 16.2731C181.653 15.8824 181.506 15.478 181.369 15.077C181.235 14.6862 181.13 14.2852 181.052 13.8911C180.975 13.5072 180.947 13.1096 180.961 12.7189C180.975 12.3316 181.052 11.9374 181.189 11.5467L181.288 11.2656L181.021 11.2382C180.578 11.1937 180.479 11.1114 180.462 11.0943C180.419 11.0497 180.419 11.0257 180.433 10.9812C180.465 10.8715 180.532 10.7447 180.63 10.6007C180.75 10.4259 180.848 10.2511 180.919 10.0866C180.999 9.89123 181.028 9.69244 180.996 9.49365C180.971 9.34627 180.901 9.22288 180.774 9.1132C180.876 8.98638 180.943 8.83215 180.975 8.65392C181.017 8.39343 181.031 8.11581 181.014 7.8279C180.996 7.55714 180.975 7.28979 180.954 7.03616C180.933 6.82366 180.943 6.65572 180.989 6.53918C180.999 6.50834 181.021 6.45007 181.165 6.45007C181.253 6.45007 181.471 6.4912 181.98 6.7791L182.216 6.42265C181.671 5.76801 181.576 5.47667 181.569 5.35671C181.562 5.22304 181.59 5.12364 181.759 5.05852C181.949 4.98655 182.209 4.94884 182.539 4.94884C182.574 4.94884 182.61 4.94884 182.645 4.94884L183.088 4.95913C183.341 4.96598 183.59 4.96941 183.84 4.97626C183.889 4.97626 183.942 4.97626 183.991 4.97626C184.336 4.97626 184.652 4.94884 184.93 4.89058C185.426 4.78775 185.566 4.48957 185.601 4.2565L185.619 4.13311L185.535 4.05085C184.74 3.27282 183.879 2.75527 182.975 2.51535" fill="white"/>
<path d="M197.646 13.3358L197.593 13.2844H197.53C197.034 13.2844 196.556 13.4249 196.12 13.6854C195.695 13.939 195.294 14.2749 194.928 14.6759C194.563 15.0735 194.232 15.5396 193.944 16.0572C193.67 16.5439 193.431 17.0511 193.223 17.555C192.71 17.8566 192.204 18.0177 191.719 18.0348C191.683 18.0348 191.645 18.0348 191.61 18.0348C191.145 18.0348 190.71 17.932 190.312 17.7298C189.88 17.5104 189.493 17.1882 189.159 16.7701C188.829 16.3588 188.561 15.8687 188.365 15.3169C188.315 14.5183 188.27 13.6785 188.22 12.8148C188.171 11.9477 188.178 11.0668 188.231 10.1997C188.287 9.33595 188.414 8.48937 188.611 7.67707C188.794 6.92303 189.096 6.21012 189.511 5.56233C189.658 5.55547 189.838 5.46293 190.077 5.27442C190.33 5.07563 190.625 4.89055 190.949 4.72603C191.212 4.59236 191.494 4.52381 191.778 4.52381C191.824 4.52381 191.87 4.52381 191.915 4.52724C192.218 4.55123 192.51 4.7843 192.777 5.22644L192.801 5.26757L192.84 5.29156C193.279 5.57947 193.659 5.96334 193.962 6.4329C194.264 6.89904 194.577 7.37888 194.914 7.90328C195.238 8.40369 195.6 8.8424 195.987 9.20571C196.401 9.58959 196.918 9.78495 197.526 9.78495H197.709L197.727 9.5793C197.776 8.98978 197.772 8.41054 197.713 7.85529C197.656 7.31718 197.593 6.77908 197.519 6.25125C197.449 5.7337 197.382 5.20587 197.326 4.67805C197.273 4.16393 197.266 3.62239 197.315 3.06372L197.365 2.49133L196.981 2.87521C196.704 3.15283 196.429 3.32078 196.162 3.37561C196.032 3.40303 195.902 3.41674 195.776 3.41674C195.628 3.41674 195.48 3.39961 195.336 3.36533C195.058 3.29678 194.777 3.1871 194.503 3.03287C194.211 2.87178 193.912 2.71412 193.613 2.56674C193.304 2.41936 192.988 2.30282 192.671 2.22742C192.548 2.19657 192.422 2.18286 192.295 2.18286C192.081 2.18286 191.863 2.22742 191.648 2.3131C191.142 2.48448 190.629 2.6627 190.129 2.84093C189.634 3.01573 189.18 3.23509 188.776 3.49558C188.365 3.75949 187.999 4.08852 187.686 4.4724C187.37 4.86313 187.124 5.37039 186.955 5.97705V5.98733L186.951 5.99762C186.628 7.76618 186.438 9.61358 186.382 11.4918C186.326 13.3495 186.304 15.1249 186.304 16.7667V16.8832L186.385 16.9483C186.733 17.2191 187.071 17.627 187.394 18.1616C187.739 18.7272 188.126 19.2824 188.547 19.8068C188.98 20.3449 189.479 20.7939 190.038 21.1367C190.418 21.3697 190.854 21.4897 191.342 21.4897C191.599 21.4897 191.87 21.4589 192.158 21.3937C192.626 21.3389 193.121 21.2464 193.631 21.1195C194.148 20.9893 194.661 20.8042 195.153 20.5643C195.649 20.3244 196.117 20.0159 196.546 19.6423C196.978 19.2687 197.372 18.806 197.706 18.2679L197.744 18.2096V18.1411C197.744 17.7709 197.804 17.3836 197.934 16.986C198.071 16.561 198.191 16.136 198.289 15.7247C198.391 15.2929 198.416 14.8644 198.363 14.4669C198.307 14.035 198.068 13.6477 197.649 13.3221" fill="white"/>
<path d="M214.732 2.38852C214.039 2.15202 213.301 1.99436 212.542 1.91896C212.204 1.88811 211.86 1.87097 211.519 1.87097C211.093 1.87097 210.661 1.89496 210.232 1.94638C209.462 2.03549 208.692 2.19315 207.943 2.41251L207.817 2.45021L207.796 2.59759C207.743 2.98147 207.732 3.28651 207.761 3.523C207.789 3.77663 207.862 3.99599 207.975 4.17765C208.087 4.35587 208.235 4.50668 208.411 4.61979C208.506 4.68148 208.615 4.75003 208.741 4.82544L206.744 7.44058L206.502 7.20066L206.375 7.42687C206.21 7.72163 206.055 8.04381 205.918 8.38313C205.785 8.70531 205.637 9.01035 205.475 9.28455C205.317 9.55532 205.134 9.79524 204.93 9.99746C204.783 10.1448 204.61 10.2545 204.417 10.3231L203.862 8.23575C203.953 7.77304 204.023 7.23836 204.073 6.64199C204.118 6.05246 204.224 5.51435 204.385 5.04136C204.54 4.59237 204.783 4.26333 205.131 4.03369C205.293 3.92744 205.5 3.87603 205.753 3.87603C206.024 3.87603 206.344 3.93773 206.713 4.05769L207.04 4.16394L206.966 3.79035C206.892 3.41333 206.688 3.08772 206.368 2.83066C206.069 2.59074 205.707 2.40223 205.293 2.26856C204.885 2.13831 204.431 2.05263 203.946 2.01835C203.732 2.00121 203.514 1.99436 203.306 1.99436C203.042 1.99436 202.782 2.00807 202.529 2.03206C202.065 2.07662 201.622 2.17601 201.218 2.32682C200.8 2.48106 200.459 2.68671 200.198 2.93691L200.132 3.00546V3.10828C200.132 3.55385 200.244 3.85547 200.473 3.99599C200.655 4.1091 200.877 4.18793 201.151 4.23591C201.39 4.28047 201.657 4.34216 201.942 4.421C202.174 4.48612 202.396 4.63007 202.607 4.84943L202.199 17.7606C202.157 18.0485 202.058 18.2713 201.896 18.4427C201.724 18.6278 201.527 18.7649 201.306 18.854C201.077 18.9431 200.835 18.9945 200.582 19.0048C200.543 19.0048 200.508 19.0048 200.473 19.0048C200.262 19.0048 200.072 18.9842 199.91 18.9397L199.527 18.8403L199.682 19.2482C199.871 19.752 200.128 20.1359 200.437 20.3826C200.743 20.626 201.088 20.7905 201.46 20.8659C201.703 20.9173 201.956 20.9413 202.213 20.9413C202.339 20.9413 202.469 20.9345 202.603 20.9242C202.983 20.8865 203.359 20.8522 203.735 20.8145C204.03 20.7871 204.322 20.7734 204.593 20.7734C204.663 20.7734 204.73 20.7734 204.8 20.7734C205.113 20.7802 205.398 20.8591 205.641 21.003L205.728 21.0544L205.82 21.0064C206.055 20.8865 206.277 20.6945 206.477 20.4375C206.681 20.1804 206.843 19.8445 206.966 19.4401L207.008 19.2996L206.91 19.2002C206.741 19.0322 206.544 18.8609 206.319 18.6929C206.101 18.5284 205.876 18.3742 205.658 18.2268C205.44 18.0828 205.229 17.9491 205.036 17.8326C204.888 17.7435 204.765 17.6715 204.66 17.6167C204.575 17.0854 204.512 16.5199 204.477 15.9338C204.438 15.3169 204.47 14.7376 204.568 14.2132C204.667 13.6991 204.85 13.2501 205.11 12.8731C205.342 12.5406 205.655 12.3178 206.062 12.191C206.344 12.6195 206.657 13.0925 206.998 13.5997C207.363 14.1413 207.697 14.7068 208 15.2792C208.298 15.8515 208.552 16.4411 208.759 17.0306C208.945 17.5687 209.047 18.1 209.058 18.6141C208.994 18.6552 208.914 18.6861 208.812 18.6998C208.618 18.7272 208.439 18.7649 208.281 18.8129C208.084 18.8711 207.933 18.9808 207.824 19.135C207.697 19.3201 207.694 19.5909 207.82 19.9611L207.848 20.0433L207.919 20.0845C208.555 20.4478 209.234 20.7597 209.944 21.0064C210.654 21.2532 211.392 21.4074 212.137 21.4623C212.324 21.476 212.514 21.4829 212.7 21.4829C213.262 21.4829 213.839 21.4212 214.409 21.2978C215.175 21.1298 215.941 20.8042 216.68 20.3244L216.553 19.9062C216.349 19.9336 216.17 19.9474 216.022 19.9474C215.759 19.9474 215.643 19.9028 215.597 19.8754C215.449 19.7897 215.337 19.6663 215.259 19.4984C215.164 19.2961 215.059 19.0562 214.95 18.782C214.82 18.4633 214.563 18.1548 214.155 17.8395L214.11 17.8018H214.053C213.495 17.7641 213.013 17.6201 212.623 17.3699C212.225 17.1129 211.867 16.7872 211.561 16.3999C211.248 16.0058 210.963 15.5671 210.714 15.0975C210.453 14.6108 210.19 14.1275 209.926 13.658C209.655 13.185 209.364 12.7326 209.054 12.3213C208.762 11.934 208.414 11.6152 208.024 11.3753C208.038 11.2759 208.066 11.1799 208.112 11.084C208.196 10.9057 208.267 10.7241 208.316 10.5493C208.376 10.3505 208.39 10.1586 208.358 9.9769C208.334 9.82609 208.253 9.69242 208.116 9.56903L211.649 5.17846C212.043 5.12705 212.45 5.08249 212.872 5.04136C213.326 4.99681 213.786 4.93169 214.24 4.84943C214.7 4.76717 215.143 4.64035 215.555 4.47241C215.977 4.30104 216.363 4.05083 216.704 3.72865L216.912 3.52986L216.683 3.36534C216.093 2.94376 215.439 2.60787 214.739 2.36795" fill="white"/>
<path d="M249.878 4.33535C249.6 3.51618 249.132 2.97465 248.489 2.72787C247.905 2.50509 247.255 2.39198 246.552 2.39198C246.524 2.39198 246.496 2.39198 246.468 2.39198C245.747 2.40226 245.012 2.45025 244.288 2.54279C243.968 2.58392 243.662 2.60448 243.381 2.60448C243.047 2.60448 242.737 2.57706 242.463 2.5188L242.309 2.48795L242.242 2.64904C242.045 3.13231 241.978 3.51618 242.034 3.82808C242.094 4.14341 242.238 4.40047 242.463 4.58555C242.664 4.75007 242.91 4.89402 243.191 5.00713C243.451 5.11338 243.697 5.23334 243.929 5.36358C244.151 5.48697 244.344 5.63778 244.509 5.81258C244.646 5.95996 244.713 6.16561 244.713 6.44666C244.713 7.15614 244.748 7.85191 244.822 8.51341C244.893 9.16805 244.945 9.80213 244.977 10.4054C245.009 11.0017 244.984 11.5878 244.907 12.1568C244.836 12.6572 244.678 13.1645 244.432 13.6614C244.249 13.5723 244.214 13.4421 244.207 13.3324C244.189 13.0959 244.256 12.88 244.414 12.6743L244.573 12.4653L243.163 11.5707L243.546 11.2074L243.43 11.036C243.121 10.587 242.864 10.0935 242.671 9.57249C242.467 9.02067 242.27 8.48599 242.094 7.98215C241.908 7.45775 241.711 6.94706 241.51 6.47065C241.328 6.03193 241.096 5.64463 240.825 5.31217L240.962 5.08253L239.865 3.52647L239.844 3.50933C239.563 3.26941 239.253 3.03634 238.916 2.82041C238.578 2.59763 238.216 2.40912 237.844 2.26174C237.467 2.11093 237.074 2.01153 236.673 1.96698C236.564 1.95327 236.455 1.94641 236.35 1.94641C236.051 1.94641 235.748 1.99782 235.46 2.09722L235.39 2.12121L235.351 2.18976C235.179 2.48109 235.031 2.48109 234.985 2.48109C234.985 2.48109 234.978 2.48109 234.975 2.48109C234.771 2.47081 234.588 2.45367 234.426 2.42968C234.381 2.42283 234.335 2.4194 234.296 2.4194C234.071 2.4194 233.948 2.52908 233.882 2.61819C233.794 2.73815 233.734 2.95751 233.878 3.73897L233.896 3.84522L233.98 3.8932C234.634 4.27022 235.13 4.75007 235.446 5.32588C235.769 5.91197 235.987 6.57004 236.096 7.28638C236.205 8.01643 236.251 8.80817 236.226 9.63419C236.202 10.4773 236.167 11.3342 236.117 12.1808C236.068 13.0376 236.054 13.8911 236.068 14.7137C236.086 15.5328 236.195 16.304 236.402 17.0101C236.357 17.2945 236.258 17.5447 236.11 17.7607C235.945 18.004 235.752 18.2165 235.537 18.3913C235.319 18.5696 235.073 18.7204 234.81 18.8369C234.542 18.9569 234.282 19.0425 234.04 19.094L233.98 19.1077L233.938 19.1556C233.818 19.2893 233.73 19.4538 233.671 19.6492C233.614 19.8377 233.59 20.0296 233.6 20.2182C233.611 20.4169 233.664 20.6089 233.762 20.7837C233.864 20.9688 234.019 21.1093 234.219 21.1984L234.258 21.2155L241.591 20.9448L241.665 20.5129C241.479 20.4238 241.331 20.273 241.215 20.0502C241.078 19.7863 240.934 19.5258 240.79 19.2722C240.635 19.0014 240.463 18.7786 240.28 18.6004C240.139 18.4667 239.978 18.3913 239.795 18.3708C239.809 18.2234 239.777 18.1034 239.742 18.0143C239.665 17.8327 239.545 17.6647 239.387 17.5173C239.246 17.3871 239.095 17.2568 238.944 17.13C238.821 17.0272 238.737 16.9244 238.694 16.8147C238.663 16.7324 238.67 16.633 238.719 16.5097C238.751 16.4308 238.86 16.2595 239.236 15.9853L239.612 15.7111L239.18 15.5774C239.039 15.5363 238.937 15.4746 238.877 15.3992C238.803 15.31 238.74 15.2072 238.694 15.0907C238.642 14.9673 238.596 14.8371 238.557 14.7102C238.529 14.6177 238.501 14.532 238.469 14.4498C238.508 14.3915 238.55 14.3229 238.596 14.2373C238.67 14.1036 238.751 13.9836 238.839 13.8774C238.891 13.8157 238.941 13.7711 238.99 13.7471C239.057 13.8054 239.13 13.8671 239.204 13.9254L239.362 13.7437L239.616 13.754L239.471 13.6169L239.482 13.6066C239.369 13.4284 239.253 13.3256 239.127 13.2879C238.969 13.1302 238.86 12.976 238.796 12.8286C238.698 12.5921 238.659 12.3624 238.68 12.1225C238.701 11.862 238.758 11.605 238.839 11.3548C238.93 11.0737 239 10.7927 239.053 10.5116C239.106 10.2169 239.109 9.91524 239.067 9.62048C239.039 9.42168 238.965 9.21946 238.846 9.01725C238.881 9.0241 238.919 9.03438 238.951 9.04466C239.095 9.0995 239.232 9.18519 239.355 9.30172C239.496 9.43197 239.633 9.57249 239.763 9.71987C239.869 9.83983 239.981 9.94951 240.09 10.0558C239.974 10.4602 239.978 10.8269 240.094 11.1457C240.21 11.4644 240.375 11.7901 240.575 12.1088C240.765 12.4104 240.944 12.7326 241.127 13.0685C241.293 13.3735 241.37 13.754 241.37 14.1961V14.2715L241.419 14.3332C241.771 14.8508 242.076 15.3375 242.33 15.7796C242.579 16.2183 242.815 16.6845 243.022 17.1609C243.23 17.6407 243.437 18.1548 243.634 18.6895C243.838 19.2413 244.08 19.8686 244.348 20.5575V20.5643L244.355 20.5678C244.594 21.1024 244.924 21.4075 245.339 21.476C245.434 21.4897 245.529 21.4966 245.627 21.4966C245.912 21.4966 246.204 21.428 246.496 21.2978C246.872 21.1264 247.206 20.8899 247.498 20.5918C247.8 20.2833 247.979 20.0228 248.039 19.8L248.088 19.6115L247.564 19.3442L247.484 18.9089C247.561 18.7821 247.631 18.6621 247.698 18.5524C247.86 18.2816 247.955 18.0212 247.983 17.7812C248.014 17.5173 247.955 17.2637 247.803 17.0272C247.74 16.9278 247.656 16.8216 247.547 16.7084L247.642 16.1772C247.867 16.0709 248.071 16.0195 248.253 16.0195L248.327 15.5842L247.311 15.125V14.7479L248.222 13.5929L247.311 13.3872V12.9314L247.389 12.0951C247.522 12.2356 247.673 12.3007 247.839 12.3007H247.986L248.028 12.1465C248.092 11.91 248.085 11.7044 248.004 11.5227C247.934 11.3616 247.828 11.2314 247.698 11.1286C247.628 11.0771 247.557 11.0257 247.484 10.9777L247.501 10.779C247.561 10.7036 247.607 10.6213 247.635 10.5288C247.712 10.306 247.733 10.0695 247.705 9.82612C247.687 9.6856 247.663 9.53822 247.624 9.39427L247.737 8.16381C247.81 8.13639 247.909 8.1124 248.05 8.09526L248.457 8.04728L247.818 7.30009L247.891 6.4775C247.927 6.38496 247.955 6.29585 247.986 6.21016C248.085 5.93254 248.197 5.68919 248.324 5.48697C248.443 5.29846 248.609 5.13394 248.816 4.99684C249.03 4.85632 249.34 4.73293 249.737 4.63011L249.962 4.57184L249.881 4.32849L249.878 4.33535Z" fill="white"/>
<path d="M251.185 3.1117C251.294 2.87863 251.442 2.68326 251.625 2.51875C251.808 2.35423 252.019 2.23084 252.261 2.14173C252.504 2.05261 252.753 2.00806 253.014 2.00806C253.277 2.00806 253.527 2.05261 253.766 2.14515C254.005 2.23427 254.216 2.36108 254.399 2.5256C254.582 2.69012 254.726 2.88891 254.835 3.11855C254.944 3.35162 254.996 3.60868 254.996 3.89658C254.996 4.18449 254.94 4.4484 254.831 4.67804C254.722 4.91111 254.575 5.10647 254.392 5.27099C254.209 5.43551 253.998 5.56233 253.755 5.64801C253.516 5.7337 253.263 5.77825 253.003 5.77825C252.739 5.77825 252.49 5.7337 252.251 5.64458C252.012 5.55547 251.801 5.42865 251.618 5.26414C251.435 5.09962 251.291 4.90083 251.182 4.66776C251.073 4.43469 251.02 4.17421 251.02 3.8863C251.02 3.60182 251.077 3.34134 251.185 3.10827M251.66 4.48268C251.734 4.66433 251.839 4.822 251.969 4.95567C252.1 5.08934 252.254 5.19216 252.434 5.26756C252.609 5.34297 252.803 5.38067 253.007 5.38067C253.207 5.38067 253.397 5.3464 253.573 5.27099C253.752 5.19902 253.907 5.09276 254.037 4.96252C254.167 4.82885 254.272 4.67119 254.353 4.48953C254.43 4.30788 254.469 4.10908 254.469 3.89316C254.469 3.67723 254.43 3.47843 254.353 3.30021C254.276 3.11855 254.17 2.96432 254.04 2.83407C253.91 2.70383 253.755 2.60101 253.576 2.5256C253.397 2.4502 253.21 2.4125 253.01 2.4125C252.806 2.4125 252.616 2.4502 252.437 2.52217C252.258 2.59415 252.103 2.69697 251.973 2.82722C251.843 2.95746 251.737 3.11512 251.66 3.29335C251.583 3.47501 251.544 3.67037 251.544 3.8863C251.544 4.10223 251.583 4.30102 251.657 4.48268M253.052 2.83065C253.323 2.83065 253.534 2.87863 253.682 2.9746C253.829 3.07057 253.9 3.23166 253.9 3.4613C253.9 3.55727 253.886 3.64295 253.854 3.7115C253.826 3.78005 253.784 3.83832 253.731 3.87945C253.678 3.924 253.618 3.95485 253.548 3.97884C253.478 4.00283 253.404 4.01654 253.327 4.0234L253.903 4.94881H253.453L252.926 4.04396H252.655V4.94538H252.226L252.23 2.83065H253.049H253.052ZM253.045 3.71493C253.168 3.71493 253.27 3.69779 253.351 3.66694C253.432 3.63267 253.471 3.55384 253.471 3.42359C253.471 3.36533 253.457 3.32077 253.428 3.2865C253.4 3.25222 253.365 3.22823 253.323 3.20766C253.281 3.19053 253.232 3.17682 253.179 3.16996C253.126 3.16311 253.073 3.15968 253.024 3.15968H252.662V3.71493H253.045Z" fill="white"/>
</g>
<defs>
<clipPath id="clip0_1_3220">
<rect width="255" height="21" fill="white" transform="translate(0 0.5)"/>
</clipPath>
</defs>
</svg>
