<svg id="Layer_2" data-name="Layer 2" xmlns="http://www.w3.org/2000/svg" xmlns:xlink="http://www.w3.org/1999/xlink" width="3507.205" height="317.781" viewBox="0 0 3507.205 317.781">
  <defs>
    <clipPath id="clip-path">
      <rect id="Rectangle_72" data-name="Rectangle 72" width="3507.205" height="317.781" fill="none"/>
    </clipPath>
    <clipPath id="clip-path-2">
      <rect id="Rectangle_73" data-name="Rectangle 73" width="3507.205" height="313.774" transform="translate(0 0)" fill="none"/>
    </clipPath>
  </defs>
  <g id="Assets" transform="translate(0 0)">
    <g id="Group_111" data-name="Group 111" clip-path="url(#clip-path)">
      <path id="Path_196" data-name="Path 196" d="M88.36,303.753h65.991V58.327h88.067V.82H-.1V58.327H87.967V303.753Z" transform="translate(-0.686 5.622)" fill="#fff"/>
    </g>
    <path id="Path_197" data-name="Path 197" d="M102.306,176.169H234.288V303.753H300.2V.82H234.288V117.091H102.306V.82H36V303.753h66.306Z" transform="translate(246.82 5.622)" fill="#fff"/>
    <path id="Path_198" data-name="Path 198" d="M144.481,56.772H205.6a54.993,54.993,0,0,1,37.866,12.805,43.131,43.131,0,0,1,13.67,33,42.424,42.424,0,0,1-13.67,33.231A53.814,53.814,0,0,1,205.6,148.688H144.481Zm0,142.746h46.665L259.1,303.769h76.44L259.1,190.326a97.651,97.651,0,0,0,46.665-35.038,95.924,95.924,0,0,0,17.284-56.329,91.052,91.052,0,0,0-30.167-70.705A113.207,113.207,0,0,0,214.322.914H78.49V303.769h66.384V199.518Z" transform="translate(538.136 5.606)" fill="#fff"/>
    <path id="Path_199" data-name="Path 199" d="M303.3,76.475l41.795,111.4H260.644ZM242.1,240.2H363.245l24.118,63.556h72.826L337.084.82h-65.6L148.38,303.753h69.212Z" transform="translate(1017.31 5.622)" fill="#fff"/>
    <path id="Path_200" data-name="Path 200" d="M272.773,303.753h65.991V58.327h87.674V.82H183.92V58.327h88.067V303.753Z" transform="translate(1260.976 5.622)" fill="#fff"/>
    <path id="Path_201" data-name="Path 201" d="M436.563,244.989H288.476V.82H222.17V303.753H436.563Z" transform="translate(1523.223 5.622)" fill="#fff"/>
    <g id="Group_112" data-name="Group 112" transform="translate(0 2.043)" clip-path="url(#clip-path-2)">
      <path id="Path_202" data-name="Path 202" d="M524.372,40.221A151.154,151.154,0,0,0,454.845.94l14.848,76.047a101.291,101.291,0,0,1,7.856,6.835A92.546,92.546,0,0,1,504.1,151.385a97.181,97.181,0,0,1-11.077,46.43c0,.393-.393.393-.393.786a94.279,94.279,0,0,1-15.319,20.976,94.744,94.744,0,0,1-133.161,0A96.714,96.714,0,0,1,328.912,198.6c-.393,0-.393-.786-.786-1.178a100.169,100.169,0,0,1-10.449-45.88,92.782,92.782,0,0,1,26.475-67.563c2.435-2.435,4.871-4.792,7.306-6.835L366.307,1.411a149.738,149.738,0,0,0-68.348,39.831,150.211,150.211,0,0,0-46.272,111.479A149.816,149.816,0,0,0,296.7,262.707a153.508,153.508,0,0,0,112.657,44.23A157.122,157.122,0,0,0,523.193,261.45a149.266,149.266,0,0,0,46.273-110.772A148.4,148.4,0,0,0,524.372,40.692" transform="translate(1725.383 4.402)" fill="#fff"/>
    </g>
    <g id="Group_113" data-name="Group 113" transform="translate(0 2.043)" clip-path="url(#clip-path-2)">
      <path id="Path_203" data-name="Path 203" d="M500.732,305.635a165.839,165.839,0,0,0,34.174-12.884,134.723,134.723,0,0,0,23.568-16.5,115.422,115.422,0,0,0,13.748-12.884c1.964-2.357,3.614-4.4,4.792-5.971l-47.136-41.48-2.436,4.007a87.594,87.594,0,0,1-9.27,8.878,81.787,81.787,0,0,1-14.455,10.056,119.182,119.182,0,0,1-20.9,8.877,98.516,98.516,0,0,1-26.554,3.614,89.56,89.56,0,0,1-66.777-27.339,93.408,93.408,0,0,1-26.554-68.034,92.862,92.862,0,0,1,26.554-67.563A89.56,89.56,0,0,1,456.5,60.759a98.749,98.749,0,0,1,24.9,3.221,71.885,71.885,0,0,1,19.326,7.228,154.292,154.292,0,0,1,13.67,9.27,60.6,60.6,0,0,1,7.856,7.228,12.951,12.951,0,0,1,2.357,3.221L573.322,48.66l-4.4-4.792a94.264,94.264,0,0,0-13.434-12.177,187.6,187.6,0,0,0-22.783-14.455,128.449,128.449,0,0,0-33-12.1A182.025,182.025,0,0,0,457.287.345a155.63,155.63,0,0,0-113.835,45.8,150.6,150.6,0,0,0-46.43,111.479,149.9,149.9,0,0,0,45.094,109.986,153.35,153.35,0,0,0,112.735,44.544,183.2,183.2,0,0,0,45.88-6.442" transform="translate(2036.243 0.048)" fill="#fff"/>
    </g>
    <path id="Path_204" data-name="Path 204" d="M404.774,156.922l127.5,146.831h80.054L470.373,144.43,603.534.82H523.873l-119.1,137.954V.82H338.39V303.753h66.384Z" transform="translate(2320.04 5.622)" fill="#fff"/>
    <path id="Path_205" data-name="Path 205" d="M604.344,246.56H443.451V174.6H578.576V121.1H443.451V58.248H600.573V.82H377.46V303.753H604.737l-.393-57.193Z" transform="translate(2587.909 5.622)" fill="#fff"/>
    <path id="Path_206" data-name="Path 206" d="M479.584,56.76H540.7a54.993,54.993,0,0,1,37.867,12.806,43.13,43.13,0,0,1,13.669,33,42.423,42.423,0,0,1-13.67,33A53.812,53.812,0,0,1,540.7,148.441H479.584Zm0,142.746h46.665L594.2,303.757H670.88L594.44,190.315a97.65,97.65,0,0,0,46.665-35.038,95.93,95.93,0,0,0,17.284-56.329,91.054,91.054,0,0,0-30.167-70.705A114.07,114.07,0,0,0,549.661.9H413.2V303.757h66.384Z" transform="translate(2832.946 5.617)" fill="#fff"/>
    <path id="Path_207" data-name="Path 207" d="M324.6,60.381a22.861,22.861,0,0,1,10.056,43.444l9.27,47.137h-39.28l9.27-47.137a22.94,22.94,0,0,1-13.041-19.876,23.568,23.568,0,0,1,23.568-22.94m60.335,123.5L349.115.36h-49.1L264.19,184.194Z" transform="translate(1811.317 2.468)" fill="#fff"/>
    <path id="Path_208" data-name="Path 208" d="M183.041,141.593V69.63H318.166V16.13H117.05V198.785H343.935V141.593Z" transform="translate(802.508 110.59)" fill="#fff"/>
    <rect id="Rectangle_75" data-name="Rectangle 75" width="222.878" height="57.507" transform="translate(919.165 6.442)" fill="#fff"/>
  </g>
</svg>
